<?xml version="1.0" encoding="UTF-8"?>
<svg version="1.1" xmlns="http://www.w3.org/2000/svg" width="841" height="841">
<path d="M0 0 C3.76692959 0.01068082 7.5333782 0.00007556 11.30029297 -0.01269531 C30.01739796 -0.02516512 48.14327366 0.91834574 66.47607422 4.88574219 C67.6877124 5.14371582 68.89935059 5.40168945 70.14770508 5.66748047 C90.85393257 10.19000551 111.15032262 15.61892512 130.53857422 24.26074219 C131.5947998 24.72383789 131.5947998 24.72383789 132.67236328 25.19628906 C159.98766397 37.25427994 188.00192303 52.64070655 210.01513672 72.98730469 C212.57336371 75.29208504 215.21689077 77.43289458 217.91357422 79.57324219 C226.96684437 86.92582741 234.9704291 95.18130195 242.19482422 104.33422852 C244.49449964 107.20570865 246.86779584 109.99902019 249.25732422 112.79589844 C254.43853111 118.95637929 258.99477596 125.47132233 263.41357422 132.19824219 C263.80009155 132.78333557 264.18660889 133.36842896 264.58483887 133.97125244 C289.59714912 171.88962766 308.87366053 212.97194028 315.53857422 258.26074219 C315.6671582 259.10056641 315.79574219 259.94039063 315.92822266 260.80566406 C321.48571697 298.07356713 321.31091365 337.22901382 314.53857422 374.26074219 C314.36342285 375.24059082 314.18827148 376.22043945 314.0078125 377.22998047 C309.28881378 402.96402065 300.13906511 426.88579257 288.53857422 450.26074219 C288.10448242 451.13601563 287.67039062 452.01128906 287.22314453 452.91308594 C283.61725065 460.10782456 280.01960008 467.12755374 274.91748047 473.39746094 C273.26175437 475.63480187 272.05994654 477.97278467 270.78857422 480.44824219 C267.4595782 486.7489336 263.15978822 492.14205606 258.75390625 497.69824219 C256.96301553 500.00071319 255.2861489 502.38018494 253.60107422 504.76074219 C246.89453907 514.04983421 239.23226816 522.59259671 231.52294922 531.05371094 C229.78880016 532.98243972 228.12604541 534.94787389 226.47607422 536.94824219 C223.80424874 540.08855214 220.84776815 542.73751394 217.70654297 545.40136719 C215.44691967 547.33935042 213.28041308 549.35810603 211.10107422 551.38574219 C171.3210599 587.19995753 120.12948032 609.80871269 68.10107422 620.51074219 C67.36977295 620.66196533 66.63847168 620.81318848 65.88500977 620.96899414 C50.61947829 623.94546185 35.42670718 624.76536439 19.91357422 625.07324219 C18.8673288 625.09476349 17.82108337 625.11628479 16.74313354 625.13845825 C-60.50922682 626.57929905 -136.27852569 606.63748284 -196.46142578 556.26074219 C-197.98123047 555.00003906 -197.98123047 555.00003906 -199.53173828 553.71386719 C-213.61939467 541.96154149 -227.61159267 529.7024201 -239.03955078 515.29589844 C-240.79066299 513.10135943 -242.56191544 510.95351417 -244.38330078 508.81933594 C-278.9590319 467.97514489 -302.35533041 415.04068697 -310.46142578 362.26074219 C-310.64447266 361.09357666 -310.82751953 359.92641113 -311.01611328 358.72387695 C-312.75201419 346.04428924 -312.79931573 333.40871554 -312.77709961 320.6262207 C-312.77395772 316.86151644 -312.79741213 313.09761455 -312.82275391 309.33300781 C-312.99082192 245.35197731 -293.64683062 182.33708329 -254.88964844 131.15185547 C-253.58766259 129.42789267 -252.30707554 127.69088905 -251.03564453 125.94433594 C-237.83608337 107.9619853 -222.74082401 90.40913567 -205.27001953 76.50683594 C-202.32256801 74.1496946 -199.45792568 71.70962975 -196.58642578 69.26074219 C-190.47936002 64.16889741 -184.08213144 59.65632861 -177.46142578 55.26074219 C-176.43017578 54.5659375 -175.39892578 53.87113281 -174.33642578 53.15527344 C-150.462341 37.40182086 -124.84141279 23.72632172 -97.46142578 15.26074219 C-96.54264648 14.97247559 -95.62386719 14.68420898 -94.67724609 14.38720703 C-76.8928299 8.8839349 -58.82448984 5.22115921 -40.46142578 2.26074219 C-39.29659668 2.06206543 -38.13176758 1.86338867 -36.93164062 1.65869141 C-24.66971711 -0.18018921 -12.3760823 -0.04167571 0 0 Z M-120.46142578 48.26074219 C-120.46142578 48.59074219 -120.46142578 48.92074219 -120.46142578 49.26074219 C-119.83276611 49.30038086 -119.20410645 49.34001953 -118.55639648 49.38085938 C-97.76380658 50.75777652 -81.923202 55.95792508 -63.46142578 65.26074219 C-62.40568359 63.90142578 -62.40568359 63.90142578 -61.32861328 62.51464844 C-50.59265692 49.10069712 -37.43644798 39.25045073 -19.94042969 36.92578125 C-11.76672939 36.13987542 -3.57658106 36.04161844 4.62841797 36.02050781 C6.90352738 36.01078512 9.17773693 35.97963365 11.45263672 35.94824219 C32.41952502 35.79537653 48.82535076 41.65922511 63.97607422 56.51074219 C66.15753341 58.71423632 67.80582351 60.66161613 69.53857422 63.26074219 C73.91703338 62.6469395 77.21304796 61.01389436 81.10107422 58.94824219 C95.71757659 51.53873723 109.28628624 50.18836698 125.53857422 49.26074219 C110.49655591 39.23272998 89.79137719 34.40556356 72.41357422 30.13574219 C71.66270538 29.95010712 70.91183655 29.76447205 70.13821411 29.57321167 C6.97323506 14.10687004 -61.21836773 22.13118203 -120.46142578 48.26074219 Z M-33.14892578 66.01074219 C-34.39222656 66.93113281 -34.39222656 66.93113281 -35.66064453 67.87011719 C-36.25490234 68.32902344 -36.84916016 68.78792969 -37.46142578 69.26074219 C-36.95447162 73.35324488 -34.96543193 74.90772322 -31.89892578 77.51074219 C-30.99529297 78.3009375 -30.09166016 79.09113281 -29.16064453 79.90527344 C-28.26990234 80.68257812 -27.37916016 81.45988281 -26.46142578 82.26074219 C-15.29048218 92.33611164 -9.5735495 103.68707494 -8.27392578 118.63574219 C-8.1949707 119.49425781 -8.11601562 120.35277344 -8.03466797 121.23730469 C-7.5276146 127.24292379 -7.25733095 133.23431111 -7.21142578 139.26074219 C-7.19752808 140.35201416 -7.19752808 140.35201416 -7.18334961 141.46533203 C-7.22103786 148.0349106 -8.34341023 153.55264887 -9.46142578 160.26074219 C-1.21142578 160.26074219 7.03857422 160.26074219 15.53857422 160.26074219 C14.87857422 156.63074219 14.21857422 153.00074219 13.53857422 149.26074219 C13.21884681 144.52081891 13.20835748 139.7944283 13.22290039 135.04589844 C13.22605967 132.89564181 13.20251527 130.74676743 13.17724609 128.59667969 C13.0821252 107.6807356 19.99996767 92.19977646 34.53857422 77.26074219 C37.14471884 74.85189372 39.80952173 72.52904556 42.53857422 70.26074219 C41.32601744 66.62307184 40.37582429 66.20633214 37.16357422 64.26074219 C36.37208984 63.76574219 35.58060547 63.27074219 34.76513672 62.76074219 C24.84801955 58.15036326 15.24909799 57.75799109 4.50488281 57.81469727 C2.04261103 57.8232282 -0.41734923 57.79432286 -2.87939453 57.76269531 C-14.27437881 57.71053317 -23.74380215 58.92282293 -33.14892578 66.01074219 Z M114.53857422 71.26074219 C118.53857422 72.26074219 118.53857422 72.26074219 118.53857422 72.26074219 Z M-170.64892578 78.07324219 C-175.32873475 81.91414356 -180.02335079 85.71866868 -184.83105469 89.3984375 C-198.89339179 100.19565163 -212.51011298 112.49427803 -222.46142578 127.26074219 C-221.06471368 130.05416638 -219.46729493 130.22517177 -216.58642578 131.32324219 C-215.70212891 131.66484375 -214.81783203 132.00644531 -213.90673828 132.35839844 C-212.10294787 133.02401439 -210.28544168 133.65273689 -208.46142578 134.26074219 C-208.08630859 133.58527344 -207.71119141 132.90980469 -207.32470703 132.21386719 C-201.1779237 121.49957483 -201.1779237 121.49957483 -194.46142578 119.26074219 C-181.65970164 118.30015105 -181.65970164 118.30015105 -176.46142578 122.26074219 C-172.40715389 126.80644098 -169.35211838 131.92407892 -166.46142578 137.26074219 C-165.54361328 137.17953125 -164.62580078 137.09832031 -163.68017578 137.01464844 C-152.39017627 136.43354552 -152.39017627 136.43354552 -148.08642578 139.76074219 C-143.1239822 144.95746422 -140.36606683 151.85606582 -137.40869141 158.31542969 C-136.46098608 160.26164516 -135.40376843 162.09322037 -134.28955078 163.94824219 C-129.8281539 172.03214081 -130.2234116 183.1194693 -132.35595703 191.97558594 C-133.30164719 194.78592313 -134.30362095 197.53163079 -135.46142578 200.26074219 C-133.72892578 201.00324219 -133.72892578 201.00324219 -131.96142578 201.76074219 C-123.21428243 206.18849971 -118.02161373 213.27623355 -114.46142578 222.26074219 C-113.60817437 225.10124368 -113.21832311 227.7981253 -113.08642578 230.76074219 C-113.03744141 231.51355469 -112.98845703 232.26636719 -112.93798828 233.04199219 C-113.46142578 235.26074219 -113.46142578 235.26074219 -115.37548828 237.40527344 C-119.5222008 239.89854995 -123.48507843 240.61973307 -128.21142578 241.44824219 C-129.06736328 241.61259766 -129.92330078 241.77695312 -130.80517578 241.94628906 C-136.33964885 242.98190637 -141.85978827 243.6994445 -147.46142578 244.26074219 C-148.54447426 247.50988761 -148.33147834 248.13443916 -147.46142578 251.26074219 C-146.35716812 263.98483668 -146.81011872 274.71971703 -154.96142578 285.01074219 C-162.02705133 292.25654763 -169.11595577 295.4768772 -179.19262695 295.91870117 C-189.27174537 296.02623784 -198.83286193 295.38222821 -206.62939453 288.28808594 C-208.38748701 286.34874681 -209.94192412 284.38973756 -211.46142578 282.26074219 C-212.46105465 280.92713059 -213.46095084 279.59371918 -214.46142578 278.26074219 C-217.75215519 286.99867899 -220.01826772 295.59690142 -221.77392578 304.76074219 C-225.50521459 323.64584461 -232.29640502 340.7678776 -240.84814453 357.96386719 C-241.72004612 359.7290934 -242.59115714 361.49471035 -243.46142578 363.26074219 C-243.86901123 364.07486572 -244.27659668 364.88898926 -244.6965332 365.7277832 C-249.2265041 375.16033562 -252.07674795 385.17791831 -255.15649414 395.15161133 C-257.93716738 404.12213325 -260.75435864 412.62496737 -265.2644043 420.89770508 C-266.85741935 423.9455444 -266.85741935 423.9455444 -267.46142578 427.26074219 C-266.27294636 430.36675762 -266.27294636 430.36675762 -264.41064453 433.68652344 C-263.91635452 434.61655937 -263.91635452 434.61655937 -263.41207886 435.56538391 C-262.33772723 437.57553459 -261.24464819 439.57467076 -260.14892578 441.57324219 C-259.40464497 442.94804759 -258.66042303 444.32288487 -257.91625977 445.69775391 C-252.90357658 454.89929222 -247.65738634 463.79876778 -241.46142578 472.26074219 C-240.75244141 473.246875 -240.04345703 474.23300781 -239.31298828 475.24902344 C-224.94756156 494.82645516 -209.00542012 513.51953082 -190.46142578 529.26074219 C-189.55263672 530.05867188 -188.64384766 530.85660156 -187.70751953 531.67871094 C-171.30877458 545.98775562 -153.59603712 556.95724045 -134.46142578 567.26074219 C-132.90352657 568.11510404 -131.3461715 568.97045942 -129.78955078 569.82714844 C-122.27655521 573.92601388 -114.6287761 577.65898215 -106.83642578 581.19824219 C-105.59155396 581.7653894 -105.59155396 581.7653894 -104.3215332 582.34399414 C-99.75691898 584.37802748 -95.30375201 586.02095089 -90.46142578 587.26074219 C-91.21830689 579.63973244 -92.72661216 572.79027689 -95.39892578 565.63574219 C-95.65174316 564.94931641 -95.90456055 564.26289062 -96.16503906 563.55566406 C-97.49572759 560.13121098 -98.57269423 557.54734831 -101.46142578 555.26074219 C-104.55318423 553.96084427 -104.55318423 553.96084427 -108.15673828 552.84277344 C-109.51864817 552.39294243 -110.88046093 551.94281729 -112.2421875 551.49243164 C-112.9524408 551.26093414 -113.66269409 551.02943665 -114.39447021 550.79092407 C-148.21888774 539.71625993 -148.21888774 539.71625993 -160.46142578 528.26074219 C-161.20392578 527.58527344 -161.94642578 526.90980469 -162.71142578 526.21386719 C-180.4108466 509.37483488 -194.14747809 485.68949209 -197.46142578 461.26074219 C-197.49295206 459.3130454 -197.48001998 457.36420239 -197.42626953 455.41699219 C-197.42143555 453.79470703 -197.42143555 453.79470703 -197.41650391 452.13964844 C-197.40478278 449.8865871 -197.35787356 447.6334353 -197.27587891 445.38183594 C-197.30154006 442.0695733 -197.43246304 439.41402422 -198.46142578 436.26074219 C-200.83733946 434.11772461 -203.05509515 432.87041564 -205.96948242 431.56713867 C-211.21558314 428.81688052 -213.64445364 423.45195886 -215.64111328 418.09667969 C-216.65680776 413.34709885 -216.45248693 409.13694626 -216.08642578 404.32324219 C-216.00134766 403.01129883 -216.00134766 403.01129883 -215.91455078 401.67285156 C-215.77434697 399.5347435 -215.61939611 397.39761106 -215.46142578 395.26074219 C-216.09048828 395.1021875 -216.71955078 394.94363281 -217.36767578 394.78027344 C-225.98019561 392.43258354 -233.64479318 389.08777016 -238.46142578 381.26074219 C-239.28490268 378.04330031 -239.31054664 375.47607984 -238.46142578 372.26074219 C-234.25409876 365.35951513 -222.77410913 357.41875196 -215.34277344 354.40014648 C-213.30043001 353.41394129 -213.30043001 353.41394129 -212.62768555 351.29638672 C-212.47098389 350.50345215 -212.31428223 349.71051758 -212.15283203 348.89355469 C-211.96624023 348.0136084 -211.77964844 347.13366211 -211.58740234 346.22705078 C-211.40145508 345.28941895 -211.21550781 344.35178711 -211.02392578 343.38574219 C-207.91810482 329.30015446 -203.98420051 316.99799665 -192.33642578 307.53417969 C-181.15724783 300.50609355 -164.20829318 300.87373648 -151.44189453 302.69042969 C-144.71267211 304.4071762 -137.26658068 308.20984757 -133.23876953 314.02636719 C-131.93845164 316.92757896 -131.38491962 319.7537819 -130.89892578 322.88574219 C-128.97293606 327.40763109 -126.77793919 327.7888197 -122.43408203 329.71386719 C-115.13056949 333.51438094 -108.69309526 339.60323045 -103.31689453 345.79589844 C-102.80497559 346.38306641 -102.29305664 346.97023438 -101.765625 347.57519531 C-100.80235558 348.70400203 -99.8605755 349.85167381 -98.94628906 351.02050781 C-94.85328467 355.86948788 -90.59578398 356.5062228 -84.46142578 357.26074219 C-79.74774045 357.51883764 -75.0483808 357.5178515 -70.32861328 357.49121094 C-68.96550541 357.4900133 -67.6023967 357.4895672 -66.23928833 357.48982239 C-63.38668611 357.48826607 -60.53421085 357.48005653 -57.68164062 357.46655273 C-54.10296529 357.44978867 -50.52443045 357.44581544 -46.94572067 357.44637871 C-30.09838725 357.44566402 -13.28887703 357.1496526 3.53857422 356.26074219 C3.00675537 355.22836426 2.47493652 354.19598633 1.92700195 353.13232422 C-9.94695203 330.01287709 -17.94060976 306.11230448 -24.83642578 281.10449219 C-26.86719158 273.75957289 -29.02672928 266.48313047 -31.46142578 259.26074219 C-31.82494141 258.14183594 -32.18845703 257.02292969 -32.56298828 255.87011719 C-34.94158953 249.30064708 -37.43368223 245.84906679 -43.18408203 241.89746094 C-52.41168354 235.26561697 -56.41213753 226.10738264 -58.27392578 215.26074219 C-59.52422086 208.91082841 -60.7262869 204.94792238 -65.53173828 200.42089844 C-80.21468386 183.98432171 -84.07936028 157.80386146 -85.02392578 136.69824219 C-85.06710937 135.78494141 -85.11029297 134.87164062 -85.15478516 133.93066406 C-85.25954336 131.70746228 -85.36171596 129.48417512 -85.46142578 127.26074219 C-87.20166016 127.20466797 -87.20166016 127.20466797 -88.97705078 127.14746094 C-110.96523402 126.29522407 -128.08125071 120.26257104 -143.46142578 104.26074219 C-144.19876953 103.51953125 -144.93611328 102.77832031 -145.69580078 102.01464844 C-153.68816442 93.57310157 -159.98347611 83.69544746 -162.46142578 72.26074219 C-165.07234225 72.26074219 -168.58096999 76.36821918 -170.64892578 78.07324219 Z M-108.46142578 72.26074219 C-108.46142578 72.59074219 -108.46142578 72.92074219 -108.46142578 73.26074219 C-106.48142578 73.26074219 -104.50142578 73.26074219 -102.46142578 73.26074219 C-102.46142578 72.93074219 -102.46142578 72.60074219 -102.46142578 72.26074219 C-104.44142578 72.26074219 -106.42142578 72.26074219 -108.46142578 72.26074219 Z M84.53857422 82.26074219 C83.28486242 84.20424815 83.28486242 84.20424815 84.09716797 86.20605469 C84.38720703 86.92535156 84.67724609 87.64464844 84.97607422 88.38574219 C85.26353516 89.11019531 85.55099609 89.83464844 85.84716797 90.58105469 C86.07533203 91.13535156 86.30349609 91.68964844 86.53857422 92.26074219 C86.78607422 91.70386719 87.03357422 91.14699219 87.28857422 90.57324219 C91.60715243 82.5838725 99.11359235 77.17323614 107.66357422 74.32324219 C108.95028582 73.95147603 110.240336 73.5900055 111.53857422 73.26074219 C102.59860222 70.34156766 91.90692781 77.64857516 84.53857422 82.26074219 Z M-102.46142578 73.26074219 C-100.3847635 74.32288826 -98.31317165 75.32352328 -96.16455078 76.23339844 C-89.27040774 79.29624224 -85.07441627 83.34632142 -80.46142578 89.26074219 C-79.80142578 88.93074219 -79.14142578 88.60074219 -78.46142578 88.26074219 C-77.80929286 86.23610964 -77.80929286 86.23610964 -77.46142578 84.26074219 C-79.47856855 82.98372398 -81.49981908 81.71414025 -83.52392578 80.44824219 C-84.0853125 80.09181641 -84.64669922 79.73539062 -85.22509766 79.36816406 C-93.26104469 74.35455482 -93.26104469 74.35455482 -102.46142578 73.26074219 Z M125.53857422 73.26074219 C126.03357422 73.94136719 126.52857422 74.62199219 127.03857422 75.32324219 C128.92047184 79.00862502 129.1230794 81.16920592 128.53857422 85.26074219 C122.86898165 93.00918537 111.70109532 98.09099768 102.53857422 100.26074219 C92.26852346 101.12571681 92.26852346 101.12571681 88.53857422 99.26074219 C88.86857422 101.24074219 89.19857422 103.22074219 89.53857422 105.26074219 C102.8315231 107.82604811 115.81879841 103.50734039 127.10107422 96.57324219 C133.81690836 91.92743749 139.4220268 85.85732653 142.53857422 78.26074219 C136.86543222 75.80656607 131.72018026 73.79827315 125.53857422 73.26074219 Z M-129.08642578 74.76074219 C-130.31232422 75.17839844 -130.31232422 75.17839844 -131.56298828 75.60449219 C-132.18947266 75.82105469 -132.81595703 76.03761719 -133.46142578 76.26074219 C-133.46142578 82.69668945 -128.80550772 85.84348276 -124.46142578 90.26074219 C-123.75373047 90.99292969 -123.04603516 91.72511719 -122.31689453 92.47949219 C-112.97165583 101.49530689 -100.81307892 106.31339399 -87.89892578 106.38574219 C-86.41950822 106.35421731 -84.94013549 106.31630957 -83.46142578 106.26074219 C-83.46142578 104.61074219 -83.46142578 102.96074219 -83.46142578 101.26074219 C-85.13205078 101.35355469 -85.13205078 101.35355469 -86.83642578 101.44824219 C-96.24174732 101.41524106 -104.99568542 96.94248699 -113.46142578 93.26074219 C-114.34958984 92.88433594 -115.23775391 92.50792969 -116.15283203 92.12011719 C-122.20596803 89.51619993 -122.20596803 89.51619993 -124.46142578 87.26074219 C-124.72705078 85.01855469 -124.72705078 85.01855469 -124.71142578 82.38574219 C-124.71658203 81.52207031 -124.72173828 80.65839844 -124.72705078 79.76855469 C-124.45033227 77.15600642 -123.78002528 75.51073339 -122.46142578 73.26074219 C-124.92762867 73.26074219 -126.75486704 73.96135062 -129.08642578 74.76074219 Z M169.53857422 74.26074219 C169.33103516 74.855 169.12349609 75.44925781 168.90966797 76.06152344 C166.29387768 83.09898435 162.74383331 89.06351826 158.53857422 95.26074219 C157.95720703 96.14246094 157.37583984 97.02417969 156.77685547 97.93261719 C147.03638174 112.37916249 132.83985191 121.87932608 115.53857422 125.26074219 C107.90725385 126.30568945 100.2261656 126.83293018 92.53857422 127.26074219 C91.36789534 135.60717475 91.36789534 135.60717475 93.96826172 143.16308594 C96.09504082 144.49979649 98.20392451 145.33521869 100.53857422 146.26074219 C101.27172852 146.57366211 102.00488281 146.88658203 102.76025391 147.20898438 C109.18729332 149.90018904 115.64863157 151.74864339 122.41357422 153.38574219 C123.41259766 153.63710937 124.41162109 153.88847656 125.44091797 154.14746094 C145.02207976 158.97326984 164.39758893 159.41589757 184.44873047 159.35839844 C186.39741479 159.35652768 188.34609958 159.3551069 190.29478455 159.35411072 C195.36297969 159.35033722 200.43114504 159.34055267 205.49932861 159.32940674 C210.69534909 159.31907993 215.8913745 159.31458923 221.08740234 159.30957031 C231.23780588 159.29892443 241.38818755 159.28191213 251.53857422 159.26074219 C250.43924666 157.52447411 249.33875783 155.78894127 248.23779297 154.05371094 C247.62508545 153.08715576 247.01237793 152.12060059 246.38110352 151.12475586 C243.56077998 146.74086618 240.59319275 142.48398372 237.53857422 138.26074219 C236.90242188 137.37660645 236.90242188 137.37660645 236.25341797 136.47460938 C229.72463233 127.44069777 222.9143725 118.92062907 215.14550781 110.92333984 C213.46220396 109.18172646 211.80773372 107.41514033 210.15185547 105.64746094 C201.17199548 96.21731615 191.32284301 88.40536133 180.74169922 80.83789062 C179.3066179 79.81056069 177.87905898 78.77261413 176.46044922 77.72265625 C173.32993577 75.13889434 173.32993577 75.13889434 169.53857422 74.26074219 Z M56.53857422 86.26074219 C44.07479392 97.80355349 35.10558406 109.33484988 34.26123047 126.97167969 C33.97726994 137.10025132 34.62979567 146.50475041 37.53857422 156.26074219 C37.74740234 157.05222656 37.95623047 157.84371094 38.17138672 158.65917969 C40.78674808 166.28502282 47.41997461 171.52772317 53.18164062 176.86962891 C54.53857422 178.26074219 54.53857422 178.26074219 56.53857422 181.26074219 C57.19857422 181.26074219 57.85857422 181.26074219 58.53857422 181.26074219 C65.97184017 166.34465517 69.71661221 152.30780028 69.72607422 135.63574219 C69.74444336 133.96705078 69.74444336 133.96705078 69.76318359 132.26464844 C69.78379244 120.46264722 67.94159348 110.16502206 63.60107422 99.19824219 C63.25367188 98.27591797 62.90626953 97.35359375 62.54833984 96.40332031 C60.41257686 90.77058114 60.41257686 90.77058114 56.53857422 86.26074219 Z M-54.46142578 88.26074219 C-62.83772725 103.35977105 -63.83244998 118.10811052 -63.33642578 135.13574219 C-63.30282959 136.33521484 -63.2692334 137.5346875 -63.23461914 138.77050781 C-62.68597466 151.23735888 -60.07997195 162.12705868 -54.46142578 173.26074219 C-54.06181641 174.07285156 -53.66220703 174.88496094 -53.25048828 175.72167969 C-52.33381515 177.57452963 -51.39978409 179.41877958 -50.46142578 181.26074219 C-49.73955078 180.52597656 -49.01767578 179.79121094 -48.27392578 179.03417969 C-46.55505979 177.33918683 -44.79226692 175.68568379 -42.96142578 174.11230469 C-35.32577722 167.31180519 -32.85128803 160.88280765 -30.46142578 151.26074219 C-30.21779297 150.36097656 -29.97416016 149.46121094 -29.72314453 148.53417969 C-26.32863016 134.35573189 -27.92648065 117.56733379 -35.45361328 104.97167969 C-40.29863849 98.42995304 -46.50196899 90.72890402 -54.46142578 88.26074219 Z M-189.46142578 144.26074219 C-189.70376953 144.8034375 -189.94611328 145.34613281 -190.19580078 145.90527344 C-190.69853516 146.97841797 -190.69853516 146.97841797 -191.21142578 148.07324219 C-191.53626953 148.7809375 -191.86111328 149.48863281 -192.19580078 150.21777344 C-193.73141819 152.69656326 -194.89767829 153.84958545 -197.46142578 155.26074219 C-204.57777842 156.06685765 -211.73981178 155.82135704 -218.46142578 153.26074219 C-217.80142578 157.22074219 -217.14142578 161.18074219 -216.46142578 165.26074219 C-215.14529297 165.23753906 -213.82916016 165.21433594 -212.47314453 165.19042969 C-193.19424673 164.94260535 -177.99197031 167.1458411 -163.52783203 181.03808594 C-160.82194269 183.94857939 -158.5985819 186.91253093 -156.46142578 190.26074219 C-153.77044688 187.68676237 -152.59097502 186.23236145 -152.08642578 182.44824219 C-152.13582406 179.08652468 -152.13582406 179.08652468 -154.84033203 177.01855469 C-157.95028031 173.74638854 -158.67771486 171.29248548 -159.77392578 166.94824219 C-160.263125 165.06685547 -160.263125 165.06685547 -160.76220703 163.14746094 C-161.10832031 161.71853516 -161.10832031 161.71853516 -161.46142578 160.26074219 C-165.00661462 161.65834124 -165.00661462 161.65834124 -168.46142578 163.26074219 C-170.44970703 163.28027344 -170.44970703 163.28027344 -172.77392578 163.07324219 C-173.53318359 163.0178125 -174.29244141 162.96238281 -175.07470703 162.90527344 C-178.37883897 162.01299558 -180.0336094 160.67677305 -182.46142578 158.26074219 C-183.73623444 155.81620671 -184.79208125 153.55991109 -185.77392578 151.01074219 C-186.03753906 150.36105469 -186.30115234 149.71136719 -186.57275391 149.04199219 C-187.21520149 147.45339452 -187.84013641 145.85773341 -188.46142578 144.26074219 C-188.79142578 144.26074219 -189.12142578 144.26074219 -189.46142578 144.26074219 Z M-243.46142578 153.26074219 C-244.20585937 154.58525391 -244.20585937 154.58525391 -244.96533203 155.93652344 C-248.78345981 162.69152712 -252.68524679 169.31480136 -257.01611328 175.76074219 C-258.60777089 178.51387967 -259.55124753 181.22092357 -260.46142578 184.26074219 C-255.44295047 181.26841766 -250.48395863 178.18224524 -245.52001953 175.10058594 C-243.19564294 173.70239772 -240.91085307 172.4165844 -238.46142578 171.26074219 C-239.50023498 165.14944978 -240.61872856 159.18369754 -242.46142578 153.26074219 C-242.79142578 153.26074219 -243.12142578 153.26074219 -243.46142578 153.26074219 Z M88.53857422 166.26074219 C88.30525391 167.11152344 88.07193359 167.96230469 87.83154297 168.83886719 C85.38183796 176.97569653 82.19066026 184.30452211 78.10107422 191.76074219 C77.64692139 192.59637695 77.19276855 193.43201172 76.72485352 194.29296875 C74.51039984 198.23170475 72.2789521 201.68441119 69.21435547 205.01464844 C67.21977565 207.23742852 66.58908927 207.99572666 66.01513672 211.00683594 C66.06412109 211.895 66.11310547 212.78316406 66.16357422 213.69824219 C65.97469126 219.45917244 64.35654204 223.58198618 61.78857422 228.63574219 C61.45293457 229.3014624 61.11729492 229.96718262 60.77148438 230.65307617 C53.19244279 244.95766366 36.51773528 256.588563 21.48388672 262.45214844 C13.36869039 264.72836204 4.91822942 264.95235386 -3.46142578 265.26074219 C-0.93399196 291.52685819 9.28732027 322.42985435 24.53857422 344.26074219 C28.30772899 341.47156765 32.04938535 338.69441589 35.62451172 335.65917969 C44.00792307 328.6317643 52.27387394 323.99936218 62.53857422 320.26074219 C63.5648291 319.87764893 63.5648291 319.87764893 64.61181641 319.48681641 C73.28498936 316.30529249 81.19768022 314.46464327 90.53857422 315.26074219 C92.94000267 319.55848362 93.99627689 322.98756899 94.41748047 327.88183594 C94.53293213 329.13955811 94.64838379 330.39728027 94.76733398 331.69311523 C94.87858916 333.02815685 94.98983575 334.36319918 95.10107422 335.69824219 C95.28576044 337.75004359 95.47496108 339.80139385 95.66465759 341.85273743 C95.84739876 343.8303418 96.02700314 345.80823523 96.20654297 347.78613281 C96.57984392 351.69261752 97.05333683 355.56273009 97.60107422 359.44824219 C101.40951251 387.00341338 102.14658047 414.01082607 95.99829102 441.28222656 C94.86272598 446.39569436 94.10704965 451.42518013 93.60107422 456.63574219 C91.87584308 473.13448193 87.73531168 487.83842658 79.53857422 502.26074219 C79.09126953 503.14503906 78.64396484 504.02933594 78.18310547 504.94042969 C73.58621691 513.5684359 66.37593759 520.39078342 59.53857422 527.26074219 C58.79269043 528.01266846 58.79269043 528.01266846 58.03173828 528.77978516 C50.69818907 536.06959039 42.48773345 541.63830812 33.33544922 546.40917969 C27.56073985 549.74846815 26.24297632 555.14111188 24.23486328 561.23144531 C23.47413568 563.44854484 22.6359587 565.62526424 21.78076172 567.80761719 C17.5886193 578.58191768 13.53857422 589.54945196 13.53857422 601.26074219 C50.03773164 607.06921025 93.64523799 592.29425097 126.35009766 577.13012695 C127.51168396 576.59210953 128.67327026 576.0540921 129.87005615 575.49977112 C130.75066711 575.09089157 131.63127808 574.68201202 132.53857422 574.26074219 C132.45314775 562.01842688 132.35790022 549.77622761 132.25104713 537.53407955 C132.20168774 531.84590387 132.15536806 526.15774162 132.11669922 520.46948242 C132.08931206 478.35846845 132.08931206 478.35846845 128.41357422 436.44824219 C127.63816421 430.7889998 127.26475723 425.21621339 127.16357422 419.51074219 C127.12466064 418.36448364 127.12466064 418.36448364 127.08496094 417.19506836 C127.07291379 413.62790754 127.22241161 411.66928153 129.43701172 408.80761719 C133.05995379 406.14091633 135.71677577 405.79412192 140.15185547 405.85839844 C144.34406137 406.56510418 147.09121836 408.8623413 149.53857422 412.26074219 C152.07593714 418.06119421 152.97963448 422.70350489 152.95507812 428.99536133 C152.96366348 429.83121262 152.97224884 430.6670639 152.98109436 431.52824402 C153.00610161 434.28421594 153.01054057 437.03982333 153.01513672 439.79589844 C153.02949535 441.75370831 153.04526078 443.7115083 153.06234741 445.66929626 C153.10418822 450.84101331 153.12913675 456.0126696 153.14984131 461.18450928 C153.18544428 469.32176678 153.2470649 477.45890298 153.30596161 485.59601974 C153.32040925 487.6039335 153.33443222 489.61185036 153.34803009 491.61977005 C153.44565673 505.79387188 153.64717118 519.9617128 153.99951172 534.13183594 C154.01855183 534.94097002 154.03759193 535.7501041 154.05720901 536.5837574 C154.25583519 544.84987762 154.56320615 553.04160654 155.53857422 561.26074219 C159.58831282 559.61084332 159.58831282 559.61084332 162.71594238 556.69723511 C163.95718283 553.02089603 163.83022333 549.3643999 163.82568359 545.52685547 C163.83251663 544.64477417 163.83934967 543.76269287 163.84638977 542.85388184 C163.85997902 540.93656079 163.8690315 539.01920348 163.87409973 537.10184097 C163.88242047 534.04570408 163.90296602 530.98986154 163.92663574 527.93380737 C163.97487993 521.41782995 164.00767466 514.90182176 164.03857422 508.38574219 C164.07450344 500.88953676 164.11708863 493.39347001 164.17451477 485.89739609 C164.19419717 482.92572731 164.20283049 479.95417186 164.21081543 476.98245239 C164.28345102 463.98374285 165.17429474 451.18464999 166.53857422 438.26074219 C166.68326524 436.83689839 166.82736149 435.41299395 166.97070312 433.98901367 C167.3059042 430.70193345 167.66743055 427.41893618 168.03857422 424.13574219 C168.15587891 423.0284375 168.27318359 421.92113281 168.39404297 420.78027344 C168.51392578 419.719375 168.63380859 418.65847656 168.75732422 417.56542969 C168.91104492 416.17300049 168.91104492 416.17300049 169.06787109 414.75244141 C169.76715548 411.05073163 170.74717077 408.91248621 173.66357422 406.51074219 C177.38333182 404.89345627 180.58508831 404.60434281 184.53857422 405.26074219 C189.46363203 407.29869715 191.4205872 408.91015322 194.10107422 413.44824219 C196.02497137 416.13472033 196.99977711 417.11229809 200.21826172 417.99902344 C203.2767627 418.24473035 206.29302226 418.32872149 209.36083984 418.28710938 C211.59418506 418.26006887 213.82111083 418.29053874 216.05419922 418.33105469 C236.54247939 418.60274015 257.05896445 417.78553829 277.53857422 417.26074219 C282.68352888 404.33666351 286.73269293 391.41569319 289.91357422 377.88574219 C290.16651245 376.82688812 290.16651245 376.82688812 290.42456055 375.74664307 C294.22617294 359.72097673 295.99640748 343.72064078 296.53857422 327.26074219 C296.56193848 326.55739746 296.58530273 325.85405273 296.609375 325.12939453 C297.98556169 275.22817145 287.44653636 228.46732086 266.53857422 183.26074219 C256.93866647 182.06318156 247.32932775 182.06834792 237.67193222 182.00038147 C234.65868837 181.97907087 231.64553996 181.95207157 228.63235474 181.92370605 C222.22613283 181.86440277 215.81986387 181.81212535 209.41357422 181.76074219 C202.00103553 181.70107296 194.58854356 181.63838479 187.17609024 181.56886292 C184.23800479 181.54272387 181.29991327 181.5216473 178.36178589 181.50085449 C163.64207152 181.37747774 148.87083929 181.23450327 134.35107422 178.57324219 C133.39547607 178.40244141 132.43987793 178.23164063 131.45532227 178.05566406 C116.87644222 175.33175629 102.49756501 171.26713129 88.53857422 166.26074219 Z M-23.46142578 186.26074219 C-24.11111328 186.59460938 -24.76080078 186.92847656 -25.43017578 187.27246094 C-31.32418608 190.69618751 -34.07264822 196.61765419 -35.98095703 202.90136719 C-37.35704604 209.65874737 -35.62527945 214.82686919 -32.00830078 220.53417969 C-29.95801482 222.82263018 -28.30661923 224.0570065 -25.46142578 225.26074219 C-22.28957689 224.72724023 -22.28957689 224.72724023 -18.83642578 223.44824219 C-11.10945853 221.13874376 -3.62108577 220.83034091 4.41357422 220.82324219 C5.55391113 220.81381592 6.69424805 220.80438965 7.86914062 220.79467773 C14.14475326 220.85552162 19.45990396 221.56157459 25.40332031 223.57299805 C29.73697272 224.96882458 34.07689972 225.04504981 38.53857422 224.26074219 C42.13168915 221.2810859 43.58058516 217.78941774 44.53857422 213.26074219 C44.83622237 204.66201795 40.96561625 197.93597727 36.35107422 190.94824219 C25.31035757 180.39822406 9.4856748 180.61805048 -4.88720703 180.87402344 C-11.81924701 181.19679618 -17.34491125 182.90246601 -23.46142578 186.26074219 Z M-230.46142578 191.26074219 C-231.38310547 191.68355469 -232.30478516 192.10636719 -233.25439453 192.54199219 C-241.34186581 196.55655225 -247.78620691 202.28914965 -254.46142578 208.26074219 C-255.4688176 209.14533608 -256.47661728 210.02946575 -257.48486328 210.91308594 C-262.89187376 215.72014046 -267.95261409 220.59750045 -272.46142578 226.26074219 C-273.35474609 227.32808594 -273.35474609 227.32808594 -274.26611328 228.41699219 C-283.92818831 240.85743214 -289.14544473 262.60430841 -288.46142578 278.26074219 C-287.56939453 278.3703125 -286.67736328 278.47988281 -285.75830078 278.59277344 C-284.00259766 278.83060547 -284.00259766 278.83060547 -282.21142578 279.07324219 C-280.47119141 279.29947266 -280.47119141 279.29947266 -278.69580078 279.53027344 C-275.41162396 280.2719897 -273.75728225 280.82070149 -271.46142578 283.26074219 C-270.28124475 287.57530011 -270.62561867 291.73793635 -272.77783203 295.65917969 C-274.53898461 298.01021229 -276.38517043 300.18448684 -278.46142578 302.26074219 C-280.48106777 302.33318272 -282.50309702 302.34451407 -284.52392578 302.32324219 C-285.62865234 302.31421875 -286.73337891 302.30519531 -287.87158203 302.29589844 C-288.72623047 302.28429687 -289.58087891 302.27269531 -290.46142578 302.26074219 C-290.78607378 330.32531282 -288.23517518 355.80420109 -282.46142578 383.26074219 C-276.76309154 380.72530851 -275.46764452 375.8824001 -273.21826172 370.28759766 C-267.43484022 354.79922175 -264.44564351 340.63928463 -268.97998047 324.40405273 C-269.90349806 320.29271353 -269.73080617 316.08271814 -269.77392578 311.88574219 C-269.80292969 310.95246094 -269.83193359 310.01917969 -269.86181641 309.05761719 C-269.91600031 303.17241145 -269.53669362 299.6505921 -265.46142578 295.26074219 C-261.8835282 293.6674041 -258.30749159 294.04002937 -254.58642578 295.01074219 C-252.46142578 296.26074219 -252.46142578 296.26074219 -250.46142578 299.26074219 C-250.14257812 301.25366211 -250.14257812 301.25366211 -250.04736328 303.49121094 C-249.98935547 304.69487305 -249.98935547 304.69487305 -249.93017578 305.92285156 C-249.88376953 307.17291992 -249.88376953 307.17291992 -249.83642578 308.44824219 C-249.77841797 309.71571289 -249.77841797 309.71571289 -249.71923828 311.00878906 C-249.62506299 313.09241742 -249.54215903 315.17654971 -249.46142578 317.26074219 C-247.94964625 314.43727751 -246.9455824 311.74923877 -246.12939453 308.65527344 C-245.89075684 307.76227539 -245.65211914 306.86927734 -245.40625 305.94921875 C-245.15633301 305.00014648 -244.90641602 304.05107422 -244.64892578 303.07324219 C-244.11494456 301.08464504 -243.57977475 299.09636671 -243.04345703 297.10839844 C-242.77742676 296.1211377 -242.51139648 295.13387695 -242.23730469 294.11669922 C-231.34391319 254.01887236 -231.34391319 254.01887236 -214.46142578 243.26074219 C-212.62717225 242.61752698 -210.76958231 242.03881034 -208.89892578 241.51074219 C-202.31273508 239.39803946 -197.0596346 236.27578408 -191.46142578 232.26074219 C-190.53587891 231.60589844 -189.61033203 230.95105469 -188.65673828 230.27636719 C-183.7284228 226.59084431 -179.80171086 223.48189877 -178.46142578 217.26074219 C-178.20361328 216.18179688 -177.94580078 215.10285156 -177.68017578 213.99121094 C-176.05293395 206.12869149 -176.05293395 206.12869149 -178.33642578 198.69824219 C-183.84966287 191.70584393 -192.90885549 187.9682606 -201.46142578 186.26074219 C-212.22899619 185.40325649 -220.59984941 186.45146499 -230.46142578 191.26074219 Z M-160.46142578 216.26074219 C-160.79142578 218.24074219 -161.12142578 220.22074219 -161.46142578 222.26074219 C-157.69842204 223.51507677 -154.18931669 223.36769641 -150.27392578 223.32324219 C-149.14954102 223.31647461 -149.14954102 223.31647461 -148.00244141 223.30957031 C-146.15540195 223.29780573 -144.30840365 223.27987084 -142.46142578 223.26074219 C-145.54387443 220.62951618 -148.1479351 218.72409579 -152.02392578 217.51074219 C-152.76771484 217.26839844 -153.51150391 217.02605469 -154.27783203 216.77636719 C-156.73630745 216.1075318 -156.73630745 216.1075318 -160.46142578 216.26074219 Z M-174.46142578 245.26074219 C-174.83912109 245.68484375 -175.21681641 246.10894531 -175.60595703 246.54589844 C-180.60739075 251.87529503 -186.23207608 255.5013098 -192.46142578 259.26074219 C-193.45142578 259.92074219 -194.44142578 260.58074219 -195.46142578 261.26074219 C-194.95572842 265.68559414 -193.56200686 268.07636162 -190.46142578 271.26074219 C-186.97037498 273.58810939 -185.11484136 274.28366905 -180.89892578 274.13574219 C-176.30096312 272.96535169 -173.55371978 271.74314118 -170.71142578 267.88574219 C-168.15881813 262.52526612 -168.4547895 259.21063623 -170.27392578 253.57324219 C-170.80953125 251.86587891 -170.80953125 251.86587891 -171.35595703 250.12402344 C-172.26949548 247.18269305 -172.26949548 247.18269305 -174.46142578 245.26074219 Z M-187.89892578 351.76074219 C-190.00677787 354.42913112 -191.46624629 356.97664987 -192.46142578 360.26074219 C-190.97642578 361.25074219 -190.97642578 361.25074219 -189.46142578 362.26074219 C-189.15000519 365.84207896 -189.53752697 368.81847402 -190.46142578 372.26074219 C-189.76017578 372.75703125 -189.05892578 373.25332031 -188.33642578 373.76464844 C-183.14009838 377.4853883 -178.11493286 381.25641854 -173.37158203 385.54199219 C-172.04726084 386.73361043 -170.6988509 387.8987865 -169.33251953 389.04199219 C-164.14536936 393.398052 -159.84641734 397.37489006 -158.46142578 404.26074219 C-157.92170425 414.43241719 -157.47276668 423.13530142 -163.21142578 431.94824219 C-167.07035373 435.91436258 -170.95249964 439.14929218 -176.46142578 440.26074219 C-176.27524681 451.09297307 -174.15712161 460.16530752 -170.46142578 470.26074219 C-170.05150391 471.41316406 -169.64158203 472.56558594 -169.21923828 473.75292969 C-160.2842098 496.64563579 -144.84232935 514.15583123 -122.46142578 524.26074219 C-100.20451955 533.930319 -76.72710826 538.78494449 -52.46142578 539.26074219 C-51.36523926 539.29184082 -50.26905273 539.32293945 -49.13964844 539.35498047 C-33.10767701 539.77715359 -17.96736375 539.60783422 -2.46142578 535.26074219 C-1.79159668 535.07882324 -1.12176758 534.8969043 -0.43164062 534.70947266 C20.96068391 528.74138212 44.41384918 516.3377162 56.81591797 497.32324219 C65.38174814 482.09509965 70.72019719 467.25098573 73.22607422 449.94824219 C73.33629913 449.18850098 73.44652405 448.42875977 73.56008911 447.64599609 C75.90313336 430.74215967 76.00318471 413.79299426 75.97607422 396.76074219 C75.97602386 395.45608002 75.97597351 394.15141785 75.97592163 392.80722046 C75.94455192 375.22097582 75.64095293 357.61875119 72.53857422 340.26074219 C59.0366096 343.90992181 45.44634795 353.58318474 36.53857422 364.26074219 C35.57213989 365.9740271 35.57213989 365.9740271 34.58618164 367.72192383 C29.22862754 377.21222383 29.22862754 377.21222383 24.64852905 378.99743652 C19.42305924 379.98605373 14.17851827 379.49272289 8.91357422 379.07324219 C7.36051837 378.99420998 5.80710514 378.92190324 4.25341797 378.85644531 C1.92593361 378.75737207 -0.40024418 378.65391695 -2.72636414 378.52645874 C-7.4165265 378.28087083 -11.95349531 378.33100954 -16.64501953 378.69433594 C-28.62531316 379.6002899 -40.64303352 379.485241 -52.65112305 379.50097656 C-55.48133155 379.50537155 -58.31123698 379.51933036 -61.14135742 379.54199219 C-101.33598846 379.85664261 -101.33598846 379.85664261 -111.46142578 372.26074219 C-113.77001953 369.96386719 -113.77001953 369.96386719 -115.89892578 367.51074219 C-116.67236328 366.63160156 -117.44580078 365.75246094 -118.24267578 364.84667969 C-119.5879751 363.27874281 -120.92405645 361.70274467 -122.24267578 360.11230469 C-130.5948139 350.14489457 -142.46478881 340.34792996 -155.87158203 339.02246094 C-167.35270831 338.70119231 -180.060118 343.03202144 -187.89892578 351.76074219 Z M-193.46142578 399.26074219 C-193.97135091 406.8017499 -193.97135091 406.8017499 -190.46142578 413.26074219 C-187.57632665 415.68496404 -187.57632665 415.68496404 -184.46142578 417.26074219 C-183.47142578 416.93074219 -182.48142578 416.60074219 -181.46142578 416.26074219 C-181.61967761 409.93066904 -185.13469709 406.46205846 -189.46142578 402.26074219 C-190.77602045 401.23623321 -192.10439417 400.22833868 -193.46142578 399.26074219 Z M188.53857422 439.26074219 C187.61654176 444.51455189 187.25608571 449.74791031 186.99584961 455.07055664 C186.95402841 455.89949841 186.9122072 456.72844019 186.86911869 457.58250141 C186.45958546 466.15441877 186.31601501 474.72350323 186.22216797 483.30371094 C186.20150683 484.9356579 186.18050869 486.56760062 186.15919495 488.19953918 C186.1049167 492.42264291 186.05510638 496.64578695 186.00634766 500.86895752 C185.95542826 505.20726967 185.90011619 509.5455258 185.84521484 513.88378906 C185.73879262 522.34272561 185.63710801 530.80171009 185.53857422 539.26074219 C195.12595188 534.61257094 202.62695915 526.49418592 210.05249023 519.00756836 C211.59582142 517.45353143 213.14954446 515.9104692 214.70458984 514.36816406 C221.10307586 507.97799792 226.91229836 501.34826693 232.53857422 494.26074219 C233.7647689 492.79990907 234.99348274 491.341182 236.22607422 489.88574219 C247.219297 476.11110159 256.88814836 460.69472422 264.72607422 444.92089844 C265.25587891 443.85621338 265.78568359 442.79152832 266.33154297 441.69458008 C266.72986328 440.89141357 267.12818359 440.08824707 267.53857422 439.26074219 C257.38598882 439.10716063 247.23334058 438.95897887 237.08057499 438.81777859 C232.36674229 438.75204904 227.65295225 438.68442733 222.93920898 438.61254883 C218.39407661 438.54330992 213.84889941 438.4789531 209.30364799 438.41804695 C207.56560168 438.39388633 205.82757931 438.36793706 204.08958626 438.34020805 C201.66384761 438.30180559 199.2381033 438.26964278 196.81225586 438.23901367 C196.08649353 438.22606766 195.3607312 438.21312164 194.61297607 438.19978333 C191.29419542 437.86788182 191.29419542 437.86788182 188.53857422 439.26074219 Z M-12.46142578 559.26074219 C-12.59231347 573.29995696 -12.31262835 587.24629982 -11.46142578 601.26074219 C-10.80142578 601.26074219 -10.14142578 601.26074219 -9.46142578 601.26074219 C-9.38625732 600.67695801 -9.31108887 600.09317383 -9.23364258 599.49169922 C-8.88060182 596.78852246 -8.51482503 594.0872073 -8.14892578 591.38574219 C-8.03097656 590.46792969 -7.91302734 589.55011719 -7.79150391 588.60449219 C-6.58836639 579.84318309 -4.29828722 571.81591553 -0.77392578 563.69824219 C0.79978477 560.59618299 0.79978477 560.59618299 1.53857422 557.26074219 C-3.57363917 557.05208042 -7.58521423 557.77387816 -12.46142578 559.26074219 Z M-64.70751953 562.35058594 C-66.78833672 565.8031668 -67.07753936 568.08222402 -67.28955078 572.09277344 C-67.36689453 573.38505859 -67.44423828 574.67734375 -67.52392578 576.00878906 C-67.58682542 577.36358828 -67.64932038 578.71840633 -67.71142578 580.07324219 C-67.78786474 581.44768595 -67.86597284 582.82203797 -67.94580078 584.19628906 C-68.13411121 587.55056863 -68.30535176 590.90483352 -68.46142578 594.26074219 C-64.31738345 594.9388664 -60.17095318 595.60113976 -56.02392578 596.26074219 C-54.27692383 596.54691406 -54.27692383 596.54691406 -52.49462891 596.83886719 C-46.06081727 597.85377832 -39.97408136 598.48363521 -33.46142578 598.26074219 C-32.56851537 588.26014556 -36.03584308 578.64295636 -40.06689453 569.58105469 C-41.25900675 566.74269225 -42.00284714 564.28736124 -42.46142578 561.26074219 C-45.70878177 560.94718894 -48.95817909 560.69245974 -52.21142578 560.44824219 C-53.59201172 560.31385742 -53.59201172 560.31385742 -55.00048828 560.17675781 C-56.33466797 560.08491211 -56.33466797 560.08491211 -57.69580078 559.99121094 C-58.92121582 559.88909302 -58.92121582 559.88909302 -60.17138672 559.78491211 C-62.67666364 560.09922273 -62.67666364 560.09922273 -64.70751953 562.35058594 Z " fill="#A3E145" transform="translate(415.46142578125,40.7392578125)"/>
<path d="M0 0 C1.11890625 -0.03996094 2.2378125 -0.07992188 3.390625 -0.12109375 C6.80120139 0.44601372 9.04807172 1.25852431 11.60693359 3.64282227 C14.06709837 7.50541758 13.50817332 12.19519634 13.4375 16.625 C13.37508998 30.32845787 16.71502938 42.58959653 25 53.8125 C33.3253387 61.75941421 43.17053146 65.48391359 54.5625 65.875 C67.35503239 65.55553394 79.03807224 60.88555853 88.5 52.25 C92.58353736 47.94337153 95.14180399 42.72076884 97.75 37.4375 C96.9971875 37.46070313 96.244375 37.48390625 95.46875 37.5078125 C69.32823964 37.95194738 69.32823964 37.95194738 60.75 30.4375 C59.945625 29.73625 59.14125 29.035 58.3125 28.3125 C56.06992271 25.62140725 55.75274519 23.46266426 55.375 20 C55.75 16.4375 55.75 16.4375 57.75 14 C63.66758825 10.91792279 68.83762423 12.42206383 75.0625 13.8125 C83.68355083 15.67415982 92.32146339 16.16841288 101.1184082 16.61474609 C116.41303683 17.51123999 116.41303683 17.51123999 121.78125 22.21875 C124.70932014 28.92497517 123.4771984 37.56711029 121 44.25 C111.92455261 63.4007322 97.54155404 78.84745328 77.5 86.25 C60.07333747 92.34144652 41.16085558 90.74994124 24.6875 82.8125 C9.51040428 75.08786681 -2.05745909 63.75539014 -7.64794922 47.41943359 C-10.63300368 37.59272146 -11.49979092 27.41390185 -11.625 17.1875 C-11.64602783 16.00861206 -11.64602783 16.00861206 -11.66748047 14.8059082 C-11.59524862 6.23717349 -9.2224484 0.17897446 0 0 Z " fill="#A3E145" transform="translate(303.25,442.5625)"/>
<path d="M0 0 C2.69990662 1.79993774 4.5418865 3.083773 6 6 C6.55910987 11.68428373 6.55910987 11.68428373 6 14 C2.48059807 18.048473 -0.89001452 20.18016691 -5.76953125 22.33984375 C-6.40936447 22.6292836 -7.04919769 22.91872345 -7.7084198 23.2169342 C-9.73846605 24.13460814 -11.77451317 25.03761285 -13.8125 25.9375 C-22.13518727 29.61955002 -29.95818995 33.09425662 -37 39 C-36.07888428 38.96072388 -36.07888428 38.96072388 -35.13916016 38.9206543 C-12.68576163 38.08787567 -12.68576163 38.08787567 -5 44 C-3.9275 44.721875 -2.855 45.44375 -1.75 46.1875 C6.0031852 54.11689396 8.9951355 62.52113415 9.3125 73.375 C9.09717374 84.33130693 5.94542171 91.8407142 -1.62890625 99.6875 C-9.11365136 106.63389918 -16.90482554 108.6670952 -26.9375 108.5 C-28.32485352 108.52320313 -28.32485352 108.52320313 -29.74023438 108.546875 C-39.57156055 108.49175895 -47.21043867 105.47816681 -54.3203125 98.7109375 C-62.41045357 90.47028218 -64.50185552 82.15439459 -64.546875 70.73632812 C-64.53849609 70.06931885 -64.53011719 69.40230957 -64.52148438 68.71508789 C-64.50013346 66.70009517 -64.52132352 64.68870954 -64.546875 62.67382812 C-64.48860716 47.85194581 -60.56997206 34.7621941 -50.3125 23.8125 C-40.51449144 14.63833468 -28.09677447 9.43967489 -16 4 C-14.39898437 3.27683594 -14.39898437 3.27683594 -12.765625 2.5390625 C-8.46187236 0.70018637 -4.74375195 -0.8825585 0 0 Z M-41.3828125 63.5078125 C-44.39828362 68.04156279 -44.91175553 72.68925905 -44 78 C-42.59431571 82.2336882 -40.46434341 85.00171326 -36.6875 87.375 C-31.68034348 89.83596416 -27.23692179 90.63548089 -21.875 88.875 C-17.03133333 86.80048385 -13.99827128 83.99654256 -11.625 79.25 C-10.60298907 73.93554317 -11.11612655 69.20968363 -13.125 64.1875 C-16.33168819 60.44636378 -19.576482 58.39076267 -24.3984375 57.61328125 C-30.95476164 57.32076833 -36.80966466 58.52127276 -41.3828125 63.5078125 Z " fill="#A3E145" transform="translate(329,686)"/>
<path d="M0 0 C2.49843806 1.61736441 4.17586739 2.73198997 6 5 C6.53965474 8.06790821 6.70970672 10.31918243 6.5859375 13.36328125 C6.57744781 14.15526413 6.56895813 14.94724701 6.56021118 15.76322937 C6.5267492 18.28106496 6.45149443 20.79564076 6.375 23.3125 C6.34489059 25.02404212 6.31751647 26.7356347 6.29296875 28.44726562 C6.22698296 32.63275733 6.12352036 36.81582698 6 41 C11.42564697 40.53575736 11.42564697 40.53575736 15.7734375 37.4453125 C16.65942343 36.35353195 17.52590148 35.2457085 18.375 34.125 C18.84486328 33.53783203 19.31472656 32.95066406 19.79882812 32.34570312 C20.75858403 31.14438484 21.71080992 29.93701061 22.65527344 28.72363281 C24.56114387 26.28074152 26.53114701 23.89226223 28.5 21.5 C29.57314453 20.18515625 29.57314453 20.18515625 30.66796875 18.84375 C33.36867183 15.55043033 36.0805389 12.26742548 38.8125 9 C39.26882812 8.44763672 39.72515625 7.89527344 40.1953125 7.32617188 C46.15337843 0.23449163 46.15337843 0.23449163 51.9375 -0.5 C55.22086294 -0.35298375 56.06876782 0.04682064 58.9375 2 C61.44166539 5.64242239 62.63410506 8.6189105 62 13 C60.53526234 16.10826959 58.28093041 18.45479067 56 21 C55.02784776 22.12579404 54.05798784 23.25356973 53.08984375 24.3828125 C50.87594352 26.95802178 48.64977688 29.5218357 46.4140625 32.078125 C43.13493524 35.83370664 39.90272604 39.62715693 36.6875 43.4375 C36.21352783 43.99912842 35.73955566 44.56075684 35.2512207 45.1394043 C34.16672297 46.42563122 33.08323463 47.71270914 32 49 C36.07170057 54.77651828 40.63310935 59.94686457 45.41796875 65.140625 C48.68468502 68.7582291 51.77130212 72.49575808 54.81640625 76.30078125 C56.28794177 78.11979922 57.79712921 79.9089136 59.33984375 81.66796875 C64.80704523 88.01914656 64.80704523 88.01914656 65.75 92.8125 C64.88291005 96.49763231 63.66286084 98.33713916 61 101 C57.49601738 102.75199131 53.82415241 102.53980383 50 102 C44.66829892 98.77876393 41.21278464 93.72102199 37.35546875 88.89453125 C35.14657998 86.18012565 32.86036919 83.58281236 30.5 81 C26.47273726 76.58414173 22.68646422 72.00733447 18.9453125 67.34765625 C17.10675749 65.03927203 17.10675749 65.03927203 15.2421875 63.30859375 C14 62 14 62 14 60 C11.36 60 8.72 60 6 60 C6.02618408 61.09465576 6.05236816 62.18931152 6.0793457 63.31713867 C6.17003219 67.38903258 6.22731549 71.46083776 6.2746582 75.53344727 C6.29976061 77.29401676 6.33385028 79.05448247 6.37719727 80.81469727 C6.43804115 83.34938179 6.46625113 85.88268575 6.48828125 88.41796875 C6.51408768 89.20149216 6.5398941 89.98501556 6.56648254 90.7922821 C6.56865098 95.043477 6.36365649 96.54357968 3.61206055 99.99707031 C0.17004692 102.63640855 -1.66353916 102.66350535 -5.84375 102.43359375 C-9.03012361 101.79285558 -10.80330678 100.33398654 -13 98 C-14.62629443 94.74741113 -14.16537119 91.16566491 -14.17700195 87.59057617 C-14.18357315 86.72049423 -14.19014435 85.85041229 -14.19691467 84.95396423 C-14.21666819 82.06696492 -14.22831463 79.18001766 -14.23828125 76.29296875 C-14.24235678 75.30811304 -14.2464323 74.32325733 -14.25063133 73.30855751 C-14.2715005 68.09625075 -14.28579874 62.88397038 -14.29516602 57.67163086 C-14.30623423 52.28445476 -14.34063656 46.89769128 -14.38033772 41.51066113 C-14.40646701 37.37139613 -14.41485456 33.23223001 -14.41844749 29.09288979 C-14.42332274 27.1069491 -14.4349633 25.12101311 -14.45348549 23.13515282 C-14.47779921 20.35563722 -14.47692619 17.57719651 -14.4699707 14.79760742 C-14.48278076 13.97715942 -14.49559082 13.15671143 -14.50878906 12.31140137 C-14.47256642 8.34028117 -14.28515595 6.44731818 -12.09562683 3.01264954 C-8.59309067 -0.35120212 -4.71666103 -1.08971134 0 0 Z " fill="#A3E145" transform="translate(25,692)"/>
<path d="M0 0 C8.11585305 6.74801265 14.11767279 13.76255143 15.8359375 24.421875 C16.60078842 37.29196266 15.49524597 48.29743408 6.8359375 58.421875 C-1.15752663 65.92029763 -8.26021472 68.94883849 -19.1015625 68.859375 C-19.95685547 68.87935547 -20.81214844 68.89933594 -21.69335938 68.91992188 C-27.89380681 68.91519232 -31.81550665 67.55167883 -37.1640625 64.421875 C-37.17022583 65.60946411 -37.17022583 65.60946411 -37.17651367 66.82104492 C-37.20946404 70.41790752 -37.28011293 74.01307975 -37.3515625 77.609375 C-37.35736328 78.85525391 -37.36316406 80.10113281 -37.36914062 81.38476562 C-37.61790468 91.69465367 -37.61790468 91.69465367 -40.40234375 94.74609375 C-43.29206053 96.49954283 -44.81310568 97.0992337 -48.1640625 97.046875 C-49.4015625 97.06621094 -49.4015625 97.06621094 -50.6640625 97.0859375 C-54.30759481 96.11812423 -55.78081964 94.30186266 -58.1640625 91.421875 C-58.79225159 88.26838684 -58.79225159 88.26838684 -58.79516602 84.67895508 C-58.80232132 84.0212915 -58.80947662 83.36362793 -58.81684875 82.68603516 C-58.83370002 80.5204429 -58.81434767 78.3569331 -58.79296875 76.19140625 C-58.79379829 74.67550995 -58.79626091 73.15961374 -58.80027771 71.64372253 C-58.80313389 68.46687731 -58.7884623 65.29073771 -58.76098633 62.11401367 C-58.72704846 58.06679665 -58.73287425 54.02085289 -58.7516489 49.97357655 C-58.76228892 46.84111679 -58.75321579 43.70894627 -58.73826408 40.57651329 C-58.73312306 39.08597362 -58.73351386 37.59540318 -58.73980904 36.10486794 C-58.77248559 23.71028764 -56.83967482 13.71441975 -48.1640625 4.421875 C-35.50923326 -7.46888908 -14.60508412 -10.65063896 0 0 Z M-35.6015625 20.484375 C-38.44532712 25.83065249 -38.79933165 30.46622675 -38.1640625 36.421875 C-36.52409464 41.65372898 -33.97857702 45.6401555 -29.1640625 48.421875 C-24.11153279 50.52709571 -20.1286383 50.80320008 -14.9140625 49.046875 C-9.79970866 46.71638406 -7.39881896 43.48385824 -5.1640625 38.421875 C-3.3726068 33.04750791 -3.45229622 28.35392934 -5.7890625 23.234375 C-8.44624883 18.43063602 -11.87705591 15.18421053 -17.1640625 13.421875 C-24.92572293 12.76410717 -30.61834389 14.22340803 -35.6015625 20.484375 Z " fill="#A3E145" transform="translate(633.1640625,725.578125)"/>
<path d="M0 0 C8.75307907 4.43176401 13.82141369 14.04530964 19.03515625 22.015625 C21.92863634 26.41049337 24.95987046 30.70581702 28 35 C33.63206157 27.65746047 39.00904294 20.18728349 44.19262695 12.52148438 C51.79368624 1.32198432 51.79368624 1.32198432 56 0 C59.31733709 -0.43002518 61.80489486 -0.71759662 64.75 1.05078125 C66.93741533 2.83331441 68.72842251 4.45684502 70 7 C70.11162859 8.91342638 70.15927172 10.83071666 70.17700195 12.74731445 C70.19625481 14.55477898 70.19625481 14.55477898 70.21589661 16.39875793 C70.22328354 17.70705063 70.23067047 19.01534332 70.23828125 20.36328125 C70.24235678 21.02819265 70.2464323 21.69310406 70.25063133 22.37816429 C70.2714908 25.89818384 70.28579241 29.41816443 70.29516602 32.93823242 C70.30622428 36.57000857 70.3406166 40.20117095 70.38033772 43.83273029 C70.40651374 46.62862773 70.4148587 49.42437922 70.41844749 52.22038841 C70.42567295 54.20848188 70.45210878 56.19647554 70.47883606 58.18440247 C70.47591049 59.3988353 70.47298492 60.61326813 70.4699707 61.86450195 C70.47583694 62.93102493 70.48170319 63.99754791 70.48774719 65.09638977 C69.87952486 68.71720115 68.51939709 70.3803326 66 73 C62.52736727 74.73631636 58.78806987 74.60190402 55 74 C52.24430553 71.81840855 50.56411253 70.12822506 49 67 C48.84655791 65.11527141 48.75040429 63.22572126 48.68359375 61.3359375 C48.64169922 60.21445312 48.59980469 59.09296875 48.55664062 57.9375 C48.51732422 56.761875 48.47800781 55.58625 48.4375 54.375 C48.39431641 53.19164062 48.35113281 52.00828125 48.30664062 50.7890625 C48.20032574 47.85949672 48.09829358 44.92984412 48 42 C47.66266846 42.46897705 47.32533691 42.9379541 46.9777832 43.42114258 C45.43213236 45.55860977 43.87253532 47.68551164 42.3125 49.8125 C41.78205078 50.55048828 41.25160156 51.28847656 40.70507812 52.04882812 C35.49367658 59.11459341 35.49367658 59.11459341 31 61 C24.14842301 61 24.14842301 61 20.58203125 57.89453125 C17.68263417 54.64422379 15.17048585 51.25932112 12.6875 47.6875 C12.23310547 47.04232422 11.77871094 46.39714844 11.31054688 45.73242188 C10.20264048 44.15802858 9.10069475 42.57944354 8 41 C7.99383667 42.23302856 7.99383667 42.23302856 7.98754883 43.4909668 C7.95460757 47.22387042 7.88395896 50.95514334 7.8125 54.6875 C7.80669922 55.98107422 7.80089844 57.27464844 7.79492188 58.60742188 C7.75141602 60.47817383 7.75141602 60.47817383 7.70703125 62.38671875 C7.6913208 63.53358154 7.67561035 64.68044434 7.65942383 65.86206055 C6.80883595 69.90967475 5.16425025 71.42193014 2 74 C-0.5 74.6640625 -0.5 74.6640625 -3 74.625 C-4.2375 74.64433594 -4.2375 74.64433594 -5.5 74.6640625 C-9.13051932 73.69970581 -10.61404048 71.85713749 -13 69 C-13.64164734 66.00268555 -13.64164734 66.00268555 -13.6628418 62.63671875 C-13.69132454 60.73950073 -13.69132454 60.73950073 -13.72038269 58.80395508 C-13.71475122 57.43179681 -13.70766116 56.05964386 -13.69921875 54.6875 C-13.70513132 53.27172241 -13.71237958 51.85594983 -13.72090149 50.44018555 C-13.73276473 47.47776169 -13.72610329 44.51608997 -13.70678711 41.55371094 C-13.68389271 37.7634159 -13.71068935 33.97536155 -13.75184917 30.18528748 C-13.77746407 27.26315164 -13.77483795 24.34154952 -13.76395607 21.41934204 C-13.76247254 20.02232833 -13.77012317 18.62527308 -13.78720665 17.22836304 C-13.89807492 6.40740911 -13.89807492 6.40740911 -11.73843384 3.02294922 C-8.04025445 -0.256172 -4.7720449 -0.69411562 0 0 Z " fill="#A3E145" transform="translate(673,720)"/>
<path d="M0 0 C8.75307907 4.43176401 13.82141369 14.04530964 19.03515625 22.015625 C21.92863634 26.41049337 24.95987046 30.70581702 28 35 C33.63206157 27.65746047 39.00904294 20.18728349 44.19262695 12.52148438 C51.79368624 1.32198432 51.79368624 1.32198432 56 0 C59.31733709 -0.43002518 61.80489486 -0.71759662 64.75 1.05078125 C66.93741533 2.83331441 68.72842251 4.45684502 70 7 C70.11162859 8.91342638 70.15927172 10.83071666 70.17700195 12.74731445 C70.19625481 14.55477898 70.19625481 14.55477898 70.21589661 16.39875793 C70.22328354 17.70705063 70.23067047 19.01534332 70.23828125 20.36328125 C70.24235678 21.02819265 70.2464323 21.69310406 70.25063133 22.37816429 C70.2714908 25.89818384 70.28579241 29.41816443 70.29516602 32.93823242 C70.30622428 36.57000857 70.3406166 40.20117095 70.38033772 43.83273029 C70.40651374 46.62862773 70.4148587 49.42437922 70.41844749 52.22038841 C70.42567295 54.20848188 70.45210878 56.19647554 70.47883606 58.18440247 C70.47591049 59.3988353 70.47298492 60.61326813 70.4699707 61.86450195 C70.47583694 62.93102493 70.48170319 63.99754791 70.48774719 65.09638977 C69.87952486 68.71720115 68.51939709 70.3803326 66 73 C62.52736727 74.73631636 58.78806987 74.60190402 55 74 C52.24430553 71.81840855 50.56411253 70.12822506 49 67 C48.84655791 65.11527141 48.75040429 63.22572126 48.68359375 61.3359375 C48.64169922 60.21445312 48.59980469 59.09296875 48.55664062 57.9375 C48.51732422 56.761875 48.47800781 55.58625 48.4375 54.375 C48.39431641 53.19164062 48.35113281 52.00828125 48.30664062 50.7890625 C48.20032574 47.85949672 48.09829358 44.92984412 48 42 C47.66266846 42.46897705 47.32533691 42.9379541 46.9777832 43.42114258 C45.43213236 45.55860977 43.87253532 47.68551164 42.3125 49.8125 C41.78205078 50.55048828 41.25160156 51.28847656 40.70507812 52.04882812 C35.49367658 59.11459341 35.49367658 59.11459341 31 61 C24.14842301 61 24.14842301 61 20.58203125 57.89453125 C17.68263417 54.64422379 15.17048585 51.25932112 12.6875 47.6875 C12.23310547 47.04232422 11.77871094 46.39714844 11.31054688 45.73242188 C10.20264048 44.15802858 9.10069475 42.57944354 8 41 C7.99383667 42.23302856 7.99383667 42.23302856 7.98754883 43.4909668 C7.95460757 47.22387042 7.88395896 50.95514334 7.8125 54.6875 C7.80669922 55.98107422 7.80089844 57.27464844 7.79492188 58.60742188 C7.75141602 60.47817383 7.75141602 60.47817383 7.70703125 62.38671875 C7.6913208 63.53358154 7.67561035 64.68044434 7.65942383 65.86206055 C6.80883595 69.90967475 5.16425025 71.42193014 2 74 C-0.5 74.6640625 -0.5 74.6640625 -3 74.625 C-4.2375 74.64433594 -4.2375 74.64433594 -5.5 74.6640625 C-9.13051932 73.69970581 -10.61404048 71.85713749 -13 69 C-13.64164734 66.00268555 -13.64164734 66.00268555 -13.6628418 62.63671875 C-13.69132454 60.73950073 -13.69132454 60.73950073 -13.72038269 58.80395508 C-13.71475122 57.43179681 -13.70766116 56.05964386 -13.69921875 54.6875 C-13.70513132 53.27172241 -13.71237958 51.85594983 -13.72090149 50.44018555 C-13.73276473 47.47776169 -13.72610329 44.51608997 -13.70678711 41.55371094 C-13.68389271 37.7634159 -13.71068935 33.97536155 -13.75184917 30.18528748 C-13.77746407 27.26315164 -13.77483795 24.34154952 -13.76395607 21.41934204 C-13.76247254 20.02232833 -13.77012317 18.62527308 -13.78720665 17.22836304 C-13.89807492 6.40740911 -13.89807492 6.40740911 -11.73843384 3.02294922 C-8.04025445 -0.256172 -4.7720449 -0.69411562 0 0 Z " fill="#A3E145" transform="translate(185,720)"/>
<path d="M0 0 C9.21120077 6.59285653 15.5585325 14.64830923 17.62060547 25.86694336 C18.35055116 31.89486683 18.33316248 37.9427215 18.31567383 44.00610352 C18.31248211 46.32549746 18.33615884 48.64365065 18.36132812 50.96289062 C18.36359873 52.45051924 18.36430572 53.93815125 18.36328125 55.42578125 C18.372491 56.11231277 18.38170074 56.7988443 18.39118958 57.50617981 C18.34949695 61.84393177 17.66266485 64.55872337 15 68 C10.99718986 70.66854009 7.71256509 70.73252307 3 70 C2.01 69.2575 1.02 68.515 0 67.75 C-0.99 67.1725 -1.98 66.595 -3 66 C-4.99969784 66.66031019 -4.99969784 66.66031019 -7.06640625 67.85546875 C-12.11630149 70.26655119 -16.39428674 70.66098213 -21.9375 70.5625 C-22.81704346 70.55081787 -23.69658691 70.53913574 -24.6027832 70.52709961 C-35.39809058 70.15954438 -41.76497815 66.14900484 -49.08984375 58.3203125 C-55.91489697 50.02975705 -57.83252442 39.55134214 -57 29 C-55.98942014 18.84530235 -51.41400716 10.52352456 -43.99609375 3.53515625 C-32.03138442 -5.66666521 -13.26206049 -7.71195053 0 0 Z M-32.578125 20.765625 C-36.19098678 26.03957266 -37.66090305 30.95885321 -36.625 37.29296875 C-35.27304814 42.33743913 -33.20301666 45.6829106 -29.01953125 48.8359375 C-24.80977741 51.26244939 -20.71092972 52.39575616 -15.859375 51.6875 C-10.42356578 50.02771093 -7.00070028 46.75192864 -4 42 C-1.8718795 36.9110162 -1.45329933 32.30730621 -3 27 C-5.66398217 20.93142651 -8.86404993 17.49597969 -15 15 C-21.86474234 14.12828669 -27.81570519 15.43737314 -32.578125 20.765625 Z " fill="#A3E145" transform="translate(809,724)"/>
<path d="M0 0 C9.13958938 5.65784105 16.54164904 12.48453804 19.1328125 23.3203125 C21.26021061 34.59552249 20.67244262 46.17279783 14.4453125 56.1328125 C8.98939565 63.53248352 2.32489359 69.48189628 -6.8671875 71.3203125 C-18.90843165 72.46937255 -30.48784105 72.79460512 -40.5 65.3671875 C-49.17046091 58.13759036 -53.60703963 50.53740336 -54.8671875 39.3203125 C-55.77394584 28.05335783 -53.19057319 17.66540363 -46.2421875 8.6953125 C-35.39367013 -3.33718011 -14.61531143 -7.2821935 0 0 Z M-31.21875 22.9296875 C-34.3135553 27.78341092 -35.49836331 32.98569338 -34.42578125 38.65234375 C-32.75361255 44.41415932 -30.41638627 48.26224319 -25.08203125 51.35546875 C-19.6319502 53.85838868 -15.42175715 53.28888603 -9.8671875 51.3203125 C-5.75685943 49.58484065 -3.71460073 47.32742964 -1.66015625 43.3359375 C0.74368886 37.22567112 0.60172314 31.51590497 -1.7109375 25.40234375 C-4.21910348 20.88595028 -8.01743248 17.93689751 -12.8671875 16.3203125 C-20.37764704 15.28336542 -26.24922194 17.01221478 -31.21875 22.9296875 Z " fill="#A3E145" transform="translate(544.8671875,722.6796875)"/>
<path d="M0 0 C9.13958938 5.65784105 16.54164904 12.48453804 19.1328125 23.3203125 C21.26021061 34.59552249 20.67244262 46.17279783 14.4453125 56.1328125 C8.98939565 63.53248352 2.32489359 69.48189628 -6.8671875 71.3203125 C-18.90843165 72.46937255 -30.48784105 72.79460512 -40.5 65.3671875 C-49.17046091 58.13759036 -53.60703963 50.53740336 -54.8671875 39.3203125 C-55.77394584 28.05335783 -53.19057319 17.66540363 -46.2421875 8.6953125 C-35.39367013 -3.33718011 -14.61531143 -7.2821935 0 0 Z M-31.21875 22.9296875 C-34.3135553 27.78341092 -35.49836331 32.98569338 -34.42578125 38.65234375 C-32.75361255 44.41415932 -30.41638627 48.26224319 -25.08203125 51.35546875 C-19.6319502 53.85838868 -15.42175715 53.28888603 -9.8671875 51.3203125 C-5.75685943 49.58484065 -3.71460073 47.32742964 -1.66015625 43.3359375 C0.74368886 37.22567112 0.60172314 31.51590497 -1.7109375 25.40234375 C-4.21910348 20.88595028 -8.01743248 17.93689751 -12.8671875 16.3203125 C-20.37764704 15.28336542 -26.24922194 17.01221478 -31.21875 22.9296875 Z " fill="#A3E145" transform="translate(141.8671875,722.6796875)"/>
<path d="M0 0 C3.09342254 2.3487314 5.54677695 5.25184653 6.53155518 9.05029297 C6.72060798 11.30465852 6.72736274 13.48874708 6.6640625 15.75 C6.66828217 16.56694336 6.67250183 17.38388672 6.67684937 18.22558594 C6.68765316 20.81800053 6.65976835 23.40782625 6.625 26 C6.60085858 28.59182276 6.58581495 31.18248431 6.59457397 33.77441406 C6.59910821 35.38060168 6.58479079 36.98699516 6.54824829 38.59277344 C6.55091819 44.18033621 7.8082844 47.39245503 11 52 C15.28952505 54.90173753 21.00123504 54.64783994 26 54 C29.39870965 52.36133642 31.3187188 51.23805841 33.14355469 47.921875 C34.32590039 43.88814827 34.23959709 40.1181513 34.203125 35.9375 C34.21366938 34.15363851 34.22542506 32.36978383 34.23828125 30.5859375 C34.24860847 27.7877526 34.24993244 24.99052516 34.22998047 22.19238281 C34.21521171 19.48160179 34.23766414 16.77313217 34.265625 14.0625 C34.25025696 13.22904053 34.23488892 12.39558105 34.21905518 11.53686523 C34.31387432 5.86519499 34.31387432 5.86519499 36.30870056 3.3497467 C39.04569286 0.99770219 41.39365605 -0.69057053 45.0625 -0.5625 C49.36116046 0.05159435 51.01296996 0.9224539 54 4 C55.35832423 6.71664845 55.15730277 8.88953759 55.19287109 11.9309082 C55.20893402 13.17592606 55.22499695 14.42094391 55.24154663 15.70368958 C55.25303364 17.06937986 55.26364226 18.43507778 55.2734375 19.80078125 C55.27876118 20.48775778 55.28408485 21.17473431 55.28956985 21.88252831 C55.31629506 25.51924906 55.33567122 29.15593556 55.35009766 32.79272461 C55.36343528 35.80084658 55.39128328 38.80828989 55.43212891 41.81616211 C55.48146845 45.44954777 55.50622 49.08231803 55.51332474 52.7160244 C55.52003392 54.09913029 55.53524779 55.48222262 55.55921555 56.8651371 C55.59089086 58.80348557 55.5879004 60.74230594 55.58349609 62.6809082 C55.59158295 63.78296097 55.5996698 64.88501373 55.60800171 66.02046204 C54.80041109 69.97809386 53.0825208 71.48156934 50 74 C47.46484375 74.59375 47.46484375 74.59375 44.9375 74.5 C44.10089844 74.4896875 43.26429688 74.479375 42.40234375 74.46875 C39.59540037 73.92105373 38.1386531 72.8571214 36 71 C34.96875 71.474375 33.9375 71.94875 32.875 72.4375 C23.90649167 76.24014753 14.27220573 75.74165512 5 73.234375 C-2.03960517 70.33787079 -8.39925112 64.08291233 -12.01464844 57.36450195 C-15.91697215 48.00027867 -15.34499362 36.76671253 -15.31567383 26.76757812 C-15.31246472 24.47479713 -15.33624947 22.18325211 -15.36132812 19.890625 C-15.36359732 18.41666827 -15.36430639 16.94270812 -15.36328125 15.46875 C-15.36626221 14.15326172 -15.36924316 12.83777344 -15.37231445 11.48242188 C-14.89043189 6.97516101 -13.35427157 4.45458798 -10.3125 1.1875 C-6.85160593 -0.58971587 -3.72305873 -0.99199125 0 0 Z " fill="#A3E145" transform="translate(361,720)"/>
<path d="M0 0 C2.90303008 1.55342912 5.04833035 3.34147251 7 6 C7.84012625 9.667957 7.66797741 13.13670701 7.4375 16.875 C7.40591797 17.84953125 7.37433594 18.8240625 7.34179688 19.828125 C7.25965789 22.22188977 7.14491673 24.60935168 7 27 C10.12829824 25.51726463 11.96717109 24.17535928 14.1875 21.5 C17.66764459 17.38232892 21.25926208 13.38280066 24.88671875 9.39453125 C26.35601202 7.72969433 27.77645921 6.02098621 29.15625 4.28125 C32.01682723 0.74189174 33.88580078 0.14443323 38.375 -0.4375 C42.00256335 0.00030937 44.20679556 0.68453658 46.87109375 3.26171875 C48.80927742 6.24611922 49.05120693 8.80385229 48.84765625 12.31640625 C47.09323075 17.87073953 42.22163574 21.23375937 38 25 C36.66042022 26.43349865 35.34432056 27.88962853 34.0625 29.375 C33.53785156 29.98085938 33.01320313 30.58671875 32.47265625 31.2109375 C30.91949179 33.09780573 29.45088825 35.03372159 28 37 C29.06927734 38.051875 29.06927734 38.051875 30.16015625 39.125 C35.13236072 44.04069226 40.05454004 48.95148505 44.5625 54.3046875 C45.79367196 55.75666747 47.10853474 57.13695871 48.4375 58.5 C50.64533789 62.03254063 50.90660338 64.94887138 50 69 C48.125 72 48.125 72 45 74 C40.55016862 74.96953576 36.61120041 75.03435088 32.70605469 72.52734375 C30.43246785 70.4546402 28.36751547 68.2892758 26.3125 66 C25.60544922 65.25621094 24.89839844 64.51242187 24.16992188 63.74609375 C20.18618557 59.52370043 16.37144206 55.16399778 12.62963867 50.7265625 C10.89619744 48.89002372 9.05766422 47.45726769 7 46 C7.02094727 46.64026123 7.04189453 47.28052246 7.06347656 47.94018555 C7.14689284 50.85579575 7.19873969 53.77115452 7.25 56.6875 C7.30027344 58.19860352 7.30027344 58.19860352 7.3515625 59.74023438 C7.45070627 67.2503749 7.45070627 67.2503749 5.109375 71.14453125 C2.22115186 73.6850979 0.46259045 74.21003806 -3.3125 74.375 C-4.07175781 74.42398438 -4.83101563 74.47296875 -5.61328125 74.5234375 C-9.23097766 73.73003109 -10.6596292 71.80285 -13 69 C-13.64164734 66.00268555 -13.64164734 66.00268555 -13.6628418 62.63671875 C-13.69132454 60.73950073 -13.69132454 60.73950073 -13.72038269 58.80395508 C-13.71475122 57.43179681 -13.70766116 56.05964386 -13.69921875 54.6875 C-13.70513132 53.27172241 -13.71237958 51.85594983 -13.72090149 50.44018555 C-13.73276473 47.47776169 -13.72610329 44.51608997 -13.70678711 41.55371094 C-13.68389271 37.7634159 -13.71068935 33.97536155 -13.75184917 30.18528748 C-13.77746407 27.26315164 -13.77483795 24.34154952 -13.76395607 21.41934204 C-13.76247254 20.02232833 -13.77012317 18.62527308 -13.78720665 17.22836304 C-13.89817134 6.39799743 -13.89817134 6.39799743 -11.73403931 3.02954102 C-8.01245391 -0.25095739 -4.78578488 -0.92357252 0 0 Z " fill="#A3E145" transform="translate(443,720)"/>
<path d="M0 0 C3.37460981 1.31952297 5.24634508 2.81744108 7 6 C8.11668358 11.01467224 8.27746197 15.73067178 5.70703125 20.296875 C2.93838159 23.60558225 0.78038328 25.76545849 -3.609375 26.34375 C-11.61735171 26.7421568 -11.61735171 26.7421568 -15.125 24.859375 C-18.69921189 21.31953053 -19.43481958 17.88633838 -19.6875 12.9375 C-19.4956777 9.01252054 -19.11941662 6.39515218 -16.625 3.3125 C-11.61972792 -1.09690636 -6.45313108 -0.81383437 0 0 Z " fill="#A3E145" transform="translate(257,392)"/>
<path d="M0 0 C3.4571096 1.69762639 5.44025995 4.03317628 7.375 7.375 C8.43251203 11.81655053 8.68109577 15.45857273 6.8125 19.6875 C4.13203541 23.1074031 2.14222947 25.53461911 -2.265625 26.4921875 C-6.27204399 26.79942822 -8.95763545 26.67106476 -12.390625 24.4609375 C-14.37841438 22.72340938 -16.21496135 20.94350161 -18 19 C-18.33 18.67 -18.66 18.34 -19 18 C-19.78768991 13.30634258 -20.1498717 8.8789803 -17.6015625 4.71484375 C-12.44646042 -0.40869648 -7.04806736 -1.53873837 0 0 Z " fill="#A3E145" transform="translate(374,150)"/>
<path d="M0 0 C3.48805691 1.98102187 6.19713391 4.39426782 8 8 C8.72494714 12.4320632 8.80150432 16.33840966 6.82421875 20.4375 C4.34581303 23.74992769 2.37098186 25.66121691 -1.703125 26.66796875 C-6.26682424 26.89864754 -9.89010013 26.62131264 -13.5625 23.75 C-17.50755612 19.29916746 -18.44970736 16.11325902 -18.32421875 10.25390625 C-17.82304045 6.76981134 -16.25055134 4.63636014 -14 2 C-9.52852634 -0.98098244 -5.23732986 -0.86073109 0 0 Z " fill="#A3E145" transform="translate(220,239)"/>
<path d="M0 0 C3.94821863 1.83284278 6.62599449 3.39349171 8.87890625 7.23828125 C9.79692275 12.01462797 10.16910284 17.05981847 7.625 21.35546875 C4.50299275 24.38330873 1.65311426 25.61336926 -2.68359375 25.86328125 C-7.89355276 25.49050735 -11.2946551 23.3174068 -14.73046875 19.40625 C-17.13694909 15.65457419 -17.23485163 11.61795952 -17.12109375 7.23828125 C-15.84826109 3.91477375 -14.61769357 2.63832 -11.87109375 0.42578125 C-7.71284564 -1.36982589 -4.30566929 -1.54623483 0 0 Z " fill="#A3E145" transform="translate(402.12109375,231.76171875)"/>
<path d="M0 0 C4.36350222 2.22291622 7.09544338 4.45022584 9 9 C9.53822319 14.02341647 9.14377246 17.01788822 6 21 C2.87624155 24.26904954 0.54693847 26.31906926 -4 26.5625 C-8.23283637 26.25495166 -10.82745362 24.87742578 -14 22 C-16.57198778 17.68569791 -17.71460772 13.93346903 -16.828125 9 C-13.79725662 1.68016692 -7.4408555 -1.32015178 0 0 Z " fill="#A3E145" transform="translate(473,149)"/>
<path d="M0 0 C3.23307772 1.61956043 5.36183145 3.7236629 7 7 C7.24277001 12.18261193 6.45326362 16.00551506 3.0625 20 C-0.21968149 23.48378969 -2.46453324 24.23849908 -7.25 24.5 C-11.39477975 24.44553509 -13.74354081 24.13249788 -16.6875 21.125 C-19.322056 17.34931364 -19.80519641 13.91721402 -19.53515625 9.375 C-18.65793902 5.48194835 -16.90401081 3.69658146 -14 1 C-9.80102108 -1.09948946 -4.56001667 -0.54696419 0 0 Z " fill="#A3E145" transform="translate(446,233)"/>
</svg>
